<svg width="100%" height="100%" viewBox="0 0 28 28" fill="none" xmlns="http://www.w3.org/2000/svg">
    <path
        d="M14 2.55432C7.58286 2.55432 2.38 7.75718 2.38 14.1743C2.38 19.6193 6.12939 24.1753 11.1841 25.436C11.1299 25.2792 11.095 25.0971 11.095 24.8715V22.8855C10.6234 22.8855 9.83327 22.8855 9.63476 22.8855C8.83976 22.8855 8.13287 22.5436 7.79008 21.9084C7.40953 21.2025 7.34368 20.1228 6.40053 19.4624C6.12068 19.2426 6.33371 18.9918 6.65617 19.0257C7.25169 19.1942 7.74554 19.6028 8.21034 20.209C8.6732 20.8161 8.89108 20.9536 9.7558 20.9536C10.1751 20.9536 10.8026 20.9294 11.3933 20.8365C11.7109 20.0298 12.2599 19.2871 12.931 18.9366C9.06151 18.5386 7.21489 16.6136 7.21489 14C7.21489 12.8748 7.69422 11.7864 8.50859 10.8694C8.24133 9.95917 7.90532 8.10287 8.61123 7.39599C10.3523 7.39599 11.4049 8.52506 11.6576 8.83009C12.5252 8.53281 13.4781 8.36432 14.4793 8.36432C15.4825 8.36432 16.4392 8.53281 17.3088 8.83203C17.5586 8.52894 18.6122 7.39599 20.3571 7.39599C21.0659 8.10384 20.726 9.96788 20.4559 10.8762C21.2654 11.7913 21.7418 12.8768 21.7418 14C21.7418 16.6116 19.8981 18.5357 16.0345 18.9356C17.0977 19.4905 17.8733 21.0495 17.8733 22.2241V24.8715C17.8733 24.9722 17.8511 25.0448 17.8394 25.131C22.3674 23.5439 25.62 19.2445 25.62 14.1743C25.62 7.75718 20.4172 2.55432 14 2.55432Z"
        fill="currentColor"/>
</svg>
