<svg width="100%" height="100%" viewBox="0 0 28 28" fill="none" xmlns="http://www.w3.org/2000/svg">
    <path
        d="M23.625 8.91846L15.3383 14.9632C14.9512 15.244 14.5011 15.3893 14.0488 15.3991C14.0326 15.3997 14.0163 15.4 14 15.4C13.9202 15.4 13.8405 15.3956 13.761 15.387C13.3738 15.3459 12.9944 15.2046 12.6617 14.9632L4.375 8.9138V23.3332H3.45833C2.19333 23.3332 1.16666 22.2879 1.16666 20.9999V7C1.16666 6.83596 1.18332 6.691 1.21499 6.56292C1.25137 6.36552 1.31199 6.17744 1.39362 6.00175C1.53271 5.70159 1.73279 5.43699 1.9779 5.22528C2.37665 4.87622 2.88999 4.66669 3.45832 4.66669H4.05415L13.466 11.5332C13.785 11.766 14.2145 11.766 14.5335 11.5332L23.9504 4.66669H24.5417C25.6583 4.66669 26.5833 5.48219 26.7842 6.5596C26.8164 6.6885 26.8333 6.83454 26.8333 7V20.9999C26.8333 20.9999 26.8333 21 26.8333 20.9999C26.8333 21.0804 26.8293 21.1601 26.8215 21.2385C26.7041 22.4146 25.7276 23.3334 24.5417 23.3334H23.625L23.625 8.91846Z"
        fill="currentColor"/>
</svg>
