<svg width="100%" height="100%" viewBox="0 0 28 28" fill="none" xmlns="http://www.w3.org/2000/svg">
    <path d="M2.68443 24.4865H7.58848V8.94067H2.68443V24.4865Z" fill="currentColor"/>
    <path
        d="M3.57291 6.30499C4.03389 6.61573 4.57678 6.78324 5.13306 6.78637C5.50545 6.79399 5.87557 6.72671 6.22136 6.58855C6.56715 6.45038 6.88152 6.24415 7.14574 5.98215C7.40996 5.72016 7.61863 5.40775 7.75929 5.06356C7.89996 4.71937 7.96974 4.35045 7.9645 3.97877C7.96494 3.42361 7.80058 2.88076 7.49217 2.41873C7.18375 1.95671 6.74511 1.59621 6.23159 1.38273C5.71807 1.16926 5.1527 1.11237 4.60682 1.21926C4.06093 1.32615 3.55901 1.59201 3.1644 1.98331C2.76978 2.3746 2.50015 2.87379 2.38955 3.41786C2.27894 3.96194 2.33231 4.52651 2.54291 5.04035C2.75352 5.55418 3.11193 5.99424 3.57291 6.30499Z"
        fill="currentColor"/>
    <path
        d="M20.7626 24.5H25.6644L25.6667 14.8836C25.6667 10.1365 22.7106 8.51569 19.9743 8.51569C17.4442 8.51569 15.7861 10.1501 15.3127 11.1063H15.2492V8.95197H10.5332V24.5H15.4372V16.0704C15.4372 13.8235 16.8643 12.7293 18.3185 12.7293C19.6957 12.7293 20.7626 13.5025 20.7626 16.0071V24.5Z"
        fill="currentColor"/>
</svg>
