<svg width="100%" height="100%" viewBox="0 0 28 28" fill="none" xmlns="http://www.w3.org/2000/svg">
    <path fill-rule="evenodd" clip-rule="evenodd"
          d="M2.93112 12.5404C9.82095 9.57678 14.4153 7.623 16.714 6.67903C23.2775 3.98381 24.6413 3.51562 25.5302 3.50016C25.7257 3.49676 26.1629 3.5446 26.446 3.77145C26.6851 3.96299 26.7509 4.22174 26.7824 4.40334C26.8139 4.58495 26.8531 4.99865 26.8219 5.3219C26.4663 9.01145 24.9273 17.965 24.1443 22.0974C23.813 23.8459 23.1607 24.4322 22.5291 24.4896C21.1566 24.6143 20.1144 23.5941 18.7851 22.7338C16.705 21.3876 15.5299 20.5496 13.5108 19.236C11.1774 17.7179 12.69 16.8835 14.0198 15.5199C14.3679 15.163 20.415 9.73264 20.5321 9.24002C20.5467 9.17841 20.5603 8.94875 20.4221 8.82749C20.2839 8.70622 20.0799 8.74769 19.9328 8.78067C19.7241 8.82742 16.4011 10.9958 9.96375 15.286C9.02052 15.9254 8.16618 16.237 7.40072 16.2206C6.55686 16.2026 4.93361 15.7496 3.72689 15.3623C2.2468 14.8873 1.07046 14.6362 1.17289 13.8295C1.22624 13.4093 1.81232 12.9796 2.93112 12.5404Z"
          fill="currentColor"/>
</svg>
